# AST/ASF file generated using VICON BodyLanguage
# -----------------------------------------------
:version 1.10
:name VICON
:units
  mass 1.0
  length 0.45
  angle deg
:documentation
   .ast/.asf automatically generated from VICON data using
   VICON BodyBuilder and BodyLanguage model FoxedUp or BRILLIANT.MOD
:root
   order TX TY TZ RX RY RZ
   axis XYZ
   position 0 0 0  
   orientation 0 0 0 
:bonedata
  begin
     id 1 
     name lhipjoint
     direction 0.541323 -0.757556 0.364798 
     length 2.47576 
     axis 0 0 0  XYZ
  end
  begin
     id 2 
     name lfemur
     direction 0.34202 -0.939693 0  
     length 7.46493  
     axis 0 0 20  XYZ
    dof rx ry rz
    limits (-160.0 20.0)
           (-70.0 70.0)
           (-60.0 70.0)
  end
  begin
     id 3 
     name ltibia
     direction 0.34202 -0.939693 0   
     length 7.73805   
     axis 0 0 20   XYZ
    dof rx
    limits (-10.0 170.0)
  end
  begin
     id 4 
     name lfoot
     direction 0.107174 -0.294458 0.949636   
     length 2.25864   
     axis -90 7.62852e-016 20   XYZ
    dof rx rz
    limits (-45.0 90.0)
           (-70.0 20.0)
  end
  begin
     id 5 
     name ltoes
     direction 1.53606e-011 -4.21934e-011 1   
     length 1.12451   
     axis -90 7.62852e-016 20   XYZ
    dof rx
    limits (-90.0 20.0)
  end
  begin
     id 6 
     name rhipjoint
     direction -0.524745 -0.766967 0.36933   
     length 2.44538  
     axis 0 0 0  XYZ 
  end
  begin
     id 7 
     name rfemur
     direction -0.34202 -0.939693 0   
     length 7.61604   
     axis 0 0 -20   XYZ
    dof rx ry rz
    limits (-160.0 20.0)
           (-70.0 70.0)
           (-70.0 60.0)
  end
  begin
     id 8 
     name rtibia
     direction -0.34202 -0.939693 0   
     length 7.61056   
     axis 0 0 -20   XYZ
    dof rx
    limits (-10.0 170.0)
 end
 begin
     id 9 
     name rfoot
     direction -0.12616 -0.346623 0.929482   
     length 2.46372  
     axis -90 -7.62852e-016 -20   XYZ
    dof rx rz
    limits (-45.0 90.0)
           (-20.0 70.0)
  end
  begin
     id 10 
     name rtoes
     direction -1.53531e-011 -4.22004e-011 1   
     length 1.21611   
     axis -90 -7.62852e-016 -20   XYZ
    dof rx
    limits (-90.0 20.0)
  end
  begin
     id 11 
     name lowerback
     direction -0.000778023 0.997293 -0.0735223   
     length 2.06139   
     axis 0 0 0   XYZ
    dof rx ry rz
    limits (-20.0 45.0)
           (-30.0 30.0)
           (-30.0 30.0)
  end
  begin
     id 12 
     name upperback
     direction 0.0222598 0.999722 -0.0078355   
     length 2.06383   
     axis 0 0 0   XYZ
    dof rx ry rz
    limits (-20.0 45.0)
           (-30.0 30.0)
           (-30.0 30.0)
  end
  begin
     id 13 
     name thorax
     direction 0.0219654 0.999405 0.0265994   
     length 2.07163   
     axis 0 0 0   XYZ
    dof rx ry rz
    limits (-20.0 45.0)
           (-30.0 30.0)
           (-30.0 30.0)
  end
  begin
     id 14 
     name lowerneck
     direction 0.0213282 0.988147 0.15202   
     length 1.75969   
     axis 0 0 0   XYZ
    dof rx ry rz
    limits (-20.0 45.0)
           (-30.0 30.0)
           (-30.0 30.0)
  end
  begin
     id 15 
     name upperneck
     direction -0.0546456 0.982624 -0.177379   
     length 1.79244   
     axis 0 0 0   XYZ
    dof rx ry rz
    limits (-20.0 45.0)
           (-30.0 30.0)
           (-30.0 30.0)
  end
  begin
     id 16
     name head
     direction -0.0199987 0.996855 -0.076686  
     length 1.80555  
     axis 0 0 0   XYZ
    dof rx ry rz
    limits (-20.0 45.0)
           (-30.0 30.0)
           (-30.0 30.0)
  end
  begin
     id 17 
     name lclavicle
     direction 0.929565 0.363219 -0.063096  
     length 3.55722  
     axis 0 0 0   XYZ
    dof ry rz
    limits (-20.0 10.0)
           (0.0 20.0)
  end
  begin
     id 18 
     name lhumerus
     direction 1 -4.48993e-011 -2.36203e-027   
     length 4.92785   
     axis 180 -30 -90   XYZ
    dof rx ry rz
    limits (-60.0 90.0)
           (-90.0 90.0)
           (-90.0 90.0)
  end
  begin
     id 19
     name lradius
     direction 1 -4.48947e-011 2.02997e-027   
     length 3.44052   
     axis 180 -30 -90   XYZ
    dof rx
    limits (-10.0 170.0)
  end
  begin
     id 20
     name lwrist
     direction 1 -4.48962e-011 1.45991e-027   
     length 1.72026   
     axis 1.49639e-024 90 90   XYZ
    dof ry
    limits (-180.0 0.0)
 end
  begin
     id 21 
     name lhand
     direction 1 -4.48984e-011 2.91906e-027   
     length 0.654326   
     axis -1.863e-015 90 90   XYZ
    dof rx rz
    limits (-90.0 90.0)
           (-45.0 45.0)
  end
  begin
     id 22 
     name lfingers
     direction 1 -4.48961e-011 5.83968e-027   
     length 0.527534   
     axis -3.72598e-015 90 90   XYZ
    dof rx
    limits (0.0 90.0)
  end
  begin
     id 23
     name lthumb
     direction 0.707107 -6.34963e-011 0.707107   
     length 0.757437   
     axis -90 45 -6.68868e-015   XYZ
    dof rx rz
    limits (-45.0 45.0)
           (-45.0 45.0)
  end
  begin
     id 24 
     name rclavicle
     direction -0.902944 0.422599 -0.0781198   
     length 3.54432  
     axis 0 0 0   XYZ 
    dof ry rz
    limits (-10.0 20.0)
           (-20.0 0.0)
  end
  begin
     id 25 
     name rhumerus
     direction -1 -4.48953e-011 -4.75835e-028  
     length 5.09181   
     axis 180 30 90   XYZ
    dof rx ry rz
    limits (-90.0 60.0)
           (-90.0 90.0)
           (-90.0 90.0)
  end
  begin
     id 26 
     name rradius
     direction -1 -4.48986e-011 -3.25889e-027   
     length 3.49865   
     axis 180 30 90   XYZ
    dof rx
    limits (-10.0 170.0)
  end
  begin
     id 27 
     name rwrist
     direction -1 -4.48963e-011 1.45989e-027   
     length 1.74933   
     axis 1.49639e-024 -90 -90   XYZ
    dof ry
    limits (-180.0 0.0)
  end
  begin
     id 28
     name rhand
     direction -1 -4.49003e-011 2.91844e-027   
     length 0.66641   
     axis -1.863e-015 -90 -90   XYZ
    dof rx rz
    limits (-90.0 90.0)
           (-45.0 45.0)
  end
  begin
     id 29
     name rfingers
     direction -1 -4.48973e-011 5.83886e-027   
     length 0.537277   
     axis -3.72598e-015 -90 -90   XYZ
    dof rx
    limits (0.0 90.0)
  end
  begin
     id 30
     name rthumb
     direction -0.707107 -6.34976e-011 0.707107   
     length 0.771425   
     axis -90 -45 6.68868e-015   XYZ
    dof rx rz
    limits (-45.0 45.0)
           (-45.0 45.0)
  end
:hierarchy
  begin
    root lhipjoint rhipjoint lowerback
    lhipjoint lfemur
    lfemur ltibia
    ltibia lfoot
    lfoot ltoes
    rhipjoint rfemur
    rfemur rtibia
    rtibia rfoot
    rfoot rtoes
    lowerback upperback
    upperback thorax
    thorax lowerneck lclavicle rclavicle
    lowerneck upperneck
    upperneck head
    lclavicle lhumerus
    lhumerus lradius
    lradius lwrist
    lwrist lhand lthumb
    lhand lfingers
    rclavicle rhumerus
    rhumerus rradius
    rradius rwrist
    rwrist rhand rthumb
    rhand rfingers
  end

#!OML:ASF H:\LiuWeirdWalks\Patient Classification 1\Patient 1\Session 1\male.ASF
:FULLY-SPECIFIED
:DEGREES
1
root 0.559742 17.9787 -25.9409 1.71522 40.3212 -0.50894
lowerback 3.79853 6.33821 1.08526
upperback 0.0711116 8.5793 2.90012
thorax -2.32723 4.29189 1.8675
lowerneck 2.76446 22.0412 7.82
upperneck -0.0483943 30.2193 -14.374
head 2.89095 15.1656 -4.00473
rclavicle 1.12413e-013 2.38542e-014
rhumerus -39.3345 -9.85571 -68.555
rradius 31.6573
rwrist -13.1059
rhand -21.7243 2.76963
rfingers 7.12502
rthumb 4.67497 -27.1588
lclavicle 1.12413e-013 2.38542e-014
lhumerus -27.8497 5.71227 87.2524
lradius 24.8017
lwrist 0.182955
lhand -10.6981 2.3514
lfingers 7.12502
lthumb 15.3113 31.7646
rfemur -0.286041 -15.0807 19.3563
rtibia 24.6073
rfoot -18.4467 -42.0601
rtoes 3.00395
lfemur -13.351 -11.8931 -14.8765
ltibia 25.7339
lfoot -12.3079 -7.44074
ltoes -8.80001
2
root 0.56501 17.9789 -25.9452 2.12472 40.4097 -0.00778459
lowerback 3.72123 6.30743 0.895057
upperback 0.0577765 8.52151 2.7096
thorax -2.29437 4.26318 1.78862
lowerneck 3.84398 22.0119 8.28553
upperneck -1.33937 30.1261 -14.9852
head 2.49062 15.2024 -4.4059
rclavicle 1.41883e-013 -3.18055e-015
rhumerus -39.3281 -10.18 -68.423
rradius 31.6464
rwrist -13.4992
rhand -20.0222 1.02518
rfingers 7.12502
rthumb 6.31842 -28.8606
lclavicle 1.41883e-013 -3.18055e-015
lhumerus -27.7877 5.71345 87.1619
lradius 24.6928
lwrist -0.00245124
lhand -10.6553 2.33399
lfingers 7.12502
lthumb 15.3525 31.744
rfemur -0.384614 -15.4448 18.8486
rtibia 24.6806
rfoot -18.2986 -41.8195
rtoes 2.90329
lfemur -13.4095 -12.0184 -15.3212
ltibia 25.6717
lfoot -12.2453 -7.40217
ltoes -8.6827
3
root 0.558078 17.9794 -25.9374 1.67405 40.2575 -0.584235
lowerback 3.77516 6.34256 1.19555
upperback 0.066883 8.58814 2.87083
thorax -2.29818 4.29476 1.78115
lowerneck 4.9466 21.9953 8.79244
upperneck -2.5593 30.0747 -15.651
head 2.12928 15.2593 -4.818
rclavicle -1.07195e-013 -2.06736e-014
rhumerus -39.3608 -10.2463 -68.3299
rradius 31.4486
rwrist -12.6852
rhand -22.5479 3.43342
rfingers 7.12502
rthumb 3.87969 -26.511
lclavicle -1.07195e-013 -2.06736e-014
lhumerus -27.7718 5.82196 87.1427
lradius 24.5968
lwrist -0.105748
lhand -10.8023 2.23607
lfingers 7.12502
lthumb 15.2109 31.6569
rfemur -0.336389 -14.9947 19.438
rtibia 24.6642
rfoot -18.526 -42.0968
rtoes 2.97507
lfemur -13.3053 -11.9607 -14.8022
ltibia 25.6704
lfoot -12.2803 -7.28844
ltoes -8.76936
4
root 0.560038 17.98 -25.9387 1.8936 40.2279 -0.328198
lowerback 3.74795 6.34648 1.09359
upperback 0.0397439 8.5853 2.76557
thorax -2.30946 4.29324 1.73081
lowerneck 6.03551 21.9863 9.14934
upperneck -3.8667 30.0125 -16.2038
head 1.70504 15.312 -5.20201
rclavicle 2.15681e-014 -3.18055e-015
rhumerus -39.2943 -10.6585 -68.148
rradius 31.3127
rwrist -12.9705
rhand -21.4993 2.59879
rfingers 7.12502
rthumb 4.89228 -27.3247
lclavicle 2.15681e-014 -3.18055e-015
lhumerus -27.8 5.65208 87.1524
lradius 24.6272
lwrist 0.0540018
lhand -10.8498 2.38788
lfingers 7.12502
lthumb 15.1652 31.8122
rfemur -0.389435 -15.1303 19.1863
rtibia 24.6839
rfoot -18.4419 -41.9351
rtoes 2.93785
lfemur -13.3287 -11.9721 -15.0245
ltibia 25.6424
lfoot -12.2624 -7.2405
ltoes -8.78455
5
root 0.559247 17.9803 -25.937 1.91001 40.1741 -0.31893
lowerback 3.74366 6.35867 1.11351
upperback 0.0278947 8.60162 2.73638
thorax -2.31228 4.30077 1.68944
lowerneck 6.70504 21.965 9.41856
upperneck -4.65429 29.9616 -16.5513
head 1.45659 15.3366 -5.44516
rclavicle -1.48592e-014 -2.22639e-014
rhumerus -39.2823 -10.9768 -67.9778
rradius 31.2372
rwrist -13.1093
rhand -21.4431 2.66623
rfingers 7.12502
rthumb 4.94653 -27.256
lclavicle -1.48592e-014 -2.22639e-014
lhumerus -27.7914 5.61853 87.1291
lradius 24.5762
lwrist 0.0346428
lhand -10.8799 2.39842
lfingers 7.12502
lthumb 15.1362 31.8249
rfemur -0.385364 -15.0947 19.185
rtibia 24.6472
rfoot -18.4182 -41.9223
rtoes 2.93204
lfemur -13.3267 -11.969 -15.0266
ltibia 25.6504
lfoot -12.2727 -7.18132
ltoes -8.79396
